<svg width="148" height="24" viewBox="0 0 148 24" fill="none" xmlns="http://www.w3.org/2000/svg">
<path d="M16.6302 9.08663C16.6302 10.7166 15.3055 12.0385 13.672 12.0385C12.0386 12.0385 10.7138 10.7166 10.7138 9.08663C10.7138 7.45669 12.0386 6.13477 13.672 6.13477C15.3055 6.13477 16.6302 7.45669 16.6302 9.08663Z" fill="white"/>
<path fill-rule="evenodd" clip-rule="evenodd" d="M12.0257 0C5.38907 0 0 5.37754 0 12C0 18.6225 5.38907 24 12.0257 24C18.6624 24 24.0515 18.6225 24.0515 12C24.0515 5.37754 18.6624 0 12.0257 0ZM12.0257 4.2738C16.2958 4.2738 19.7685 7.73904 19.7685 12C19.7685 16.261 16.2958 19.7262 12.0257 19.7262C7.75563 19.7262 4.28296 16.261 4.28296 12C4.28296 7.73904 7.75563 4.2738 12.0257 4.2738Z" fill="white"/>
<path d="M84.836 10.6781C84.2315 8.86844 81.8649 7.91871 77.8778 7.91871C73.0161 7.91871 70.3408 9.40748 70.3537 12.1283C70.3537 14.8364 73.0289 16.338 77.8907 16.338C81.8778 16.338 84.1672 15.3882 84.8103 13.5016L81.8521 12.9369C81.5563 13.8481 80.3344 14.2588 77.8907 14.2588C74.6238 14.2588 73.1961 13.6043 73.1961 12.1283C73.1961 10.6396 74.6366 9.99785 77.8907 9.99785C80.2701 9.99785 81.492 10.3957 81.8392 11.2684L84.836 10.6781Z" fill="white"/>
<path fill-rule="evenodd" clip-rule="evenodd" d="M41.7749 8.07273H29.4405V16.1583H39.3698C41.3248 16.1583 42.4694 15.2214 42.4694 13.6428C42.4694 12.0642 41.3119 11.1273 39.3698 11.1273H32.1029V10.0364H41.7749V8.07273ZM32.1029 14.2717V13.0396H38.881C39.4727 13.0396 39.7428 13.2321 39.7428 13.6556C39.7428 14.092 39.4727 14.2717 38.881 14.2717H32.1029Z" fill="white"/>
<path fill-rule="evenodd" clip-rule="evenodd" d="M44.0386 8.07273H53.0289C55.5112 8.07273 56.9903 9.22781 56.9903 11.1786C56.9903 13.1294 55.5241 14.2845 53.0289 14.2845H46.8167V16.1711H44.0386V8.07273ZM46.8167 10.1647V12.2182H52.5916C53.6849 12.2182 54.1608 11.9102 54.1608 11.2043C54.1608 10.4727 53.6849 10.1647 52.5916 10.1647H46.8167Z" fill="white"/>
<path d="M62.5209 13.7968L56.7331 8.07273H60.1029L64.1672 12.0513L67.7942 8.07273H71.074L63.6913 16.1711H60.3344L62.5209 13.7968Z" fill="white"/>
<path d="M88.8875 8.07273H86.1093V16.1711H88.8875V13.0909H97.3891V16.1711H100.167V8.07273H97.3891V10.9989H88.8875V8.07273Z" fill="white"/>
<path d="M104.99 8.07273H102.212V16.1711H104.99L113.196 10.6524V16.1711H115.987V8.07273H113.196L104.99 13.5914V8.07273Z" fill="white"/>
<path fill-rule="evenodd" clip-rule="evenodd" d="M120.72 8.07273H117.942V16.1711H120.72V12.6289L127.228 16.1711H135.164L136.27 14.7594H143.563L144.669 16.1711H148L141.415 8.07273H138.521L131.979 16.1177L124.219 11.8845L131.884 8.07273H127.357L120.72 11.4481V8.07273ZM139.91 10.0749L142.071 12.8471H137.749L139.91 10.0749Z" fill="white"/>
</svg>
