<svg width="24" height="24" viewBox="0 0 24 24" fill="none" xmlns="http://www.w3.org/2000/svg">
<path d="M12 0C18.6274 0 24 5.37258 24 12C24 18.6274 18.6274 24 12 24C5.37258 24 0 18.6274 0 12C0 5.37258 5.37258 0 12 0ZM12 4.32C7.75845 4.32 4.32 7.75845 4.32 12C4.32 16.2415 7.75845 19.68 12 19.68C16.2415 19.68 19.68 16.2415 19.68 12C19.68 7.75845 16.2415 4.32 12 4.32ZM13.6 6.08C15.2789 6.08 16.64 7.44105 16.64 9.12C16.64 10.7989 15.2789 12.16 13.6 12.16C11.9211 12.16 10.56 10.7989 10.56 9.12C10.56 7.44105 11.9211 6.08 13.6 6.08Z" fill="#2C3031"/>
</svg>
