<svg width="105" height="24" viewBox="0 0 105 24" fill="none" xmlns="http://www.w3.org/2000/svg">
<path d="M12 0C18.6274 0 24 5.37258 24 12C24 18.6274 18.6274 24 12 24C5.37258 24 0 18.6274 0 12C0 5.37258 5.37258 0 12 0ZM12 4.32C7.75845 4.32 4.32 7.75845 4.32 12C4.32 16.2415 7.75845 19.68 12 19.68C16.2415 19.68 19.68 16.2415 19.68 12C19.68 7.75845 16.2415 4.32 12 4.32ZM13.6 6.08C15.2789 6.08 16.64 7.44105 16.64 9.12C16.64 10.7989 15.2789 12.16 13.6 12.16C11.9211 12.16 10.56 10.7989 10.56 9.12C10.56 7.44105 11.9211 6.08 13.6 6.08Z" fill="white"/>
<path d="M42.916 12.236C42.916 13.028 42.764 13.732 42.46 14.348C42.156 14.956 41.712 15.468 41.128 15.884C40.552 16.3 39.836 16.616 38.98 16.832C38.124 17.048 37.144 17.156 36.04 17.156C34.944 17.156 33.968 17.052 33.112 16.844C32.264 16.628 31.552 16.312 30.976 15.896C30.4 15.472 29.96 14.956 29.656 14.348C29.36 13.732 29.212 13.028 29.212 12.236V8.6H31.588V12.104C31.588 12.84 31.748 13.448 32.068 13.928C32.396 14.408 32.888 14.768 33.544 15.008C34.208 15.24 35.04 15.356 36.04 15.356C36.808 15.356 37.472 15.292 38.032 15.164C38.6 15.028 39.068 14.828 39.436 14.564C39.804 14.292 40.08 13.952 40.264 13.544C40.448 13.136 40.54 12.656 40.54 12.104V8.6H42.916V12.236ZM45.565 17V10.424H47.701L47.821 12.32C48.101 11.976 48.445 11.664 48.853 11.384C49.373 11.032 49.973 10.76 50.653 10.568C51.333 10.376 52.073 10.28 52.873 10.28C52.985 10.28 53.101 10.284 53.221 10.292C53.349 10.292 53.457 10.3 53.545 10.316L53.461 12.296C53.269 12.24 53.057 12.2 52.825 12.176C52.593 12.152 52.353 12.14 52.105 12.14C51.625 12.14 51.173 12.18 50.749 12.26C50.325 12.332 49.937 12.444 49.585 12.596C49.233 12.748 48.929 12.94 48.673 13.172C48.417 13.396 48.217 13.66 48.073 13.964C47.929 14.26 47.853 14.6 47.845 14.984V17H45.565ZM54.6589 12.224C54.8109 11.872 55.0309 11.576 55.3189 11.336C55.6069 11.088 55.9789 10.888 56.4349 10.736C56.8909 10.576 57.4349 10.46 58.0669 10.388C58.7069 10.308 59.4509 10.268 60.2989 10.268C61.3389 10.268 62.2149 10.316 62.9269 10.412C63.6389 10.508 64.2109 10.66 64.6429 10.868C65.0829 11.076 65.3989 11.344 65.5909 11.672C65.7829 12 65.8789 12.396 65.8789 12.86V14.972C65.8789 15.092 65.8909 15.196 65.9149 15.284C65.9469 15.364 65.9989 15.428 66.0709 15.476C66.1509 15.524 66.2629 15.548 66.4069 15.548C66.4629 15.548 66.5229 15.544 66.5869 15.536C66.6509 15.528 66.7229 15.52 66.8029 15.512L66.7549 17C66.5309 17.056 66.3229 17.096 66.1309 17.12C65.9389 17.144 65.7229 17.156 65.4829 17.156C65.0829 17.156 64.7469 17.084 64.4749 16.94C64.2109 16.796 64.0149 16.58 63.8869 16.292C63.8069 16.132 63.7509 15.948 63.7189 15.74C63.5989 15.836 63.4669 15.928 63.3229 16.016C62.9309 16.248 62.4749 16.452 61.9549 16.628C61.4349 16.804 60.8669 16.936 60.2509 17.024C59.6349 17.112 58.9869 17.156 58.3069 17.156C57.4589 17.156 56.7469 17.08 56.1709 16.928C55.5949 16.776 55.1589 16.552 54.8629 16.256C54.5669 15.96 54.4189 15.592 54.4189 15.152C54.4189 14.744 54.5469 14.404 54.8029 14.132C55.0669 13.852 55.4789 13.636 56.0389 13.484C56.5989 13.332 57.3309 13.236 58.2349 13.196L63.6349 12.956C63.6189 12.78 63.5669 12.624 63.4789 12.488C63.3749 12.328 63.1949 12.196 62.9389 12.092C62.6829 11.988 62.3389 11.912 61.9069 11.864C61.4749 11.816 60.9389 11.792 60.2989 11.792C59.5869 11.792 59.0029 11.82 58.5469 11.876C58.0909 11.932 57.7469 12.024 57.5149 12.152C57.2829 12.272 57.1269 12.436 57.0469 12.644L54.6589 12.224ZM63.6829 14.12L57.9829 14.408C57.7029 14.424 57.4709 14.456 57.2869 14.504C57.1029 14.544 56.9669 14.612 56.8789 14.708C56.7909 14.804 56.7469 14.924 56.7469 15.068C56.7469 15.228 56.8189 15.364 56.9629 15.476C57.1069 15.58 57.3269 15.66 57.6229 15.716C57.9269 15.764 58.3189 15.788 58.7989 15.788C59.3429 15.788 59.8549 15.764 60.3349 15.716C60.8229 15.66 61.2709 15.584 61.6789 15.488C62.0869 15.392 62.4389 15.276 62.7349 15.14C63.0389 15.004 63.2709 14.848 63.4309 14.672C63.5909 14.504 63.6749 14.32 63.6829 14.12ZM70.9014 17H68.6214V8H70.9014V17ZM73.951 17V8.6H84.151C84.655 8.6 85.107 8.648 85.507 8.744C85.907 8.84 86.247 8.98 86.527 9.164C86.815 9.34 87.035 9.564 87.187 9.836C87.339 10.1 87.415 10.4 87.415 10.736C87.415 10.976 87.375 11.204 87.295 11.42C87.215 11.636 87.087 11.836 86.911 12.02C86.743 12.204 86.519 12.364 86.239 12.5C86.103 12.564 85.951 12.62 85.783 12.668C86.151 12.74 86.467 12.844 86.731 12.98C87.115 13.164 87.399 13.408 87.583 13.712C87.775 14.008 87.871 14.348 87.871 14.732C87.871 15.212 87.739 15.62 87.475 15.956C87.219 16.292 86.843 16.552 86.347 16.736C85.851 16.912 85.239 17 84.511 17H73.951ZM76.279 13.52V15.476H83.887C84.239 15.476 84.523 15.444 84.739 15.38C84.963 15.308 85.127 15.2 85.231 15.056C85.335 14.904 85.387 14.72 85.387 14.504C85.387 14.288 85.331 14.108 85.219 13.964C85.115 13.812 84.951 13.7 84.727 13.628C84.511 13.556 84.231 13.52 83.887 13.52H76.279ZM76.279 10.124V11.984H83.695C83.903 11.984 84.083 11.968 84.235 11.936C84.395 11.896 84.531 11.84 84.643 11.768C84.763 11.688 84.851 11.588 84.907 11.468C84.963 11.348 84.991 11.204 84.991 11.036C84.991 10.828 84.943 10.66 84.847 10.532C84.751 10.396 84.603 10.296 84.403 10.232C84.203 10.16 83.955 10.124 83.659 10.124H76.279ZM102.049 17L100.705 15.296H92.8335L91.4895 17H88.7295L95.5815 8.6H98.0295L104.905 17H102.049ZM99.4095 13.652L96.7575 10.316L94.1295 13.652H99.4095Z" fill="white"/>
</svg>
